<svg width="574" height="105" viewBox="0 0 574 105" fill="none" xmlns="http://www.w3.org/2000/svg">
<path d="M70.04 87.736H69.464C68.408 92.632 65.528 96.712 60.824 99.976C56.216 103.144 50.072 104.728 42.392 104.728C36.44 104.728 30.92 103.624 25.832 101.416C20.744 99.112 16.328 95.8 12.584 91.48C8.93601 87.064 6.05601 81.64 3.94401 75.208C1.92801 68.68 0.920013 61.192 0.920013 52.744C0.920013 44.392 1.97601 37 4.08801 30.568C6.20001 24.04 9.17602 18.568 13.016 14.152C16.856 9.73599 21.464 6.42399 26.84 4.21599C32.216 1.91199 38.216 0.759995 44.84 0.759995C53.864 0.759995 61.496 2.776 67.736 6.80799C73.976 10.744 78.824 16.264 82.28 23.368L69.032 31.144C67.112 26.44 64.136 22.648 60.104 19.768C56.072 16.792 50.984 15.304 44.84 15.304C36.872 15.304 30.44 17.848 25.544 22.936C20.744 28.024 18.344 35.224 18.344 44.536V60.952C18.344 70.264 20.744 77.464 25.544 82.552C30.44 87.64 36.872 90.184 44.84 90.184C48.008 90.184 51.032 89.8 53.912 89.032C56.792 88.168 59.288 86.968 61.4 85.432C63.608 83.8 65.336 81.832 66.584 79.528C67.928 77.128 68.6 74.344 68.6 71.176V63.4H47.864V49.432H84.296V103H70.04V87.736Z" fill="black"/>
<path d="M106.915 103V2.488H171.283V16.888H123.187V44.824H166.819V59.224H123.187V88.6H171.283V103H106.915Z" fill="black"/>
<path d="M269.171 26.104H268.451L260.531 42.376L238.499 82.552L216.467 42.376L208.547 26.104H207.827V103H192.275V2.488H211.571L238.499 53.608H239.363L266.291 2.488H284.723V103H269.171V26.104Z" fill="black"/>
<path d="M309.556 103V2.488H352.756C362.068 2.488 369.268 5.224 374.356 10.696C379.444 16.168 381.988 23.512 381.988 32.728C381.988 41.944 379.444 49.288 374.356 54.76C369.268 60.232 362.068 62.968 352.756 62.968H325.828V103H309.556ZM325.828 48.712H351.748C355.876 48.712 359.092 47.656 361.396 45.544C363.7 43.336 364.852 40.216 364.852 36.184V29.272C364.852 25.24 363.7 22.168 361.396 20.056C359.092 17.848 355.876 16.744 351.748 16.744H325.828V48.712Z" fill="black"/>
<path d="M415.245 2.488V64.408C415.245 72.952 416.877 79.384 420.141 83.704C423.405 88.024 428.973 90.184 436.845 90.184C444.717 90.184 450.285 88.024 453.549 83.704C456.813 79.384 458.445 72.952 458.445 64.408V2.488H474.429V61.816C474.429 69.208 473.757 75.592 472.413 80.968C471.069 86.344 468.909 90.808 465.933 94.36C462.957 97.816 459.069 100.408 454.269 102.136C449.565 103.864 443.757 104.728 436.845 104.728C429.933 104.728 424.077 103.864 419.277 102.136C414.573 100.408 410.733 97.816 407.757 94.36C404.781 90.808 402.621 86.344 401.277 80.968C399.933 75.592 399.261 69.208 399.261 61.816V2.488H415.245Z" fill="black"/>
<path d="M498.556 2.488H543.052C551.404 2.488 557.932 4.83999 562.636 9.54399C567.436 14.248 569.836 20.536 569.836 28.408C569.836 32.152 569.308 35.368 568.252 38.056C567.196 40.648 565.852 42.808 564.22 44.536C562.588 46.168 560.716 47.416 558.604 48.28C556.492 49.048 554.428 49.528 552.412 49.72V50.584C554.428 50.68 556.636 51.16 559.036 52.024C561.532 52.888 563.836 54.28 565.948 56.2C568.06 58.024 569.836 60.424 571.276 63.4C572.716 66.28 573.436 69.832 573.436 74.056C573.436 78.088 572.764 81.88 571.42 85.432C570.172 88.984 568.396 92.056 566.092 94.648C563.788 97.24 561.052 99.304 557.884 100.84C554.716 102.28 551.26 103 547.516 103H498.556V2.488ZM514.828 89.032H542.764C546.988 89.032 550.3 87.928 552.7 85.72C555.1 83.512 556.3 80.344 556.3 76.216V71.32C556.3 67.192 555.1 64.024 552.7 61.816C550.3 59.608 546.988 58.504 542.764 58.504H514.828V89.032ZM514.828 44.968H540.028C544.06 44.968 547.18 43.96 549.388 41.944C551.596 39.832 552.7 36.856 552.7 33.016V28.408C552.7 24.568 551.596 21.64 549.388 19.624C547.18 17.512 544.06 16.456 540.028 16.456H514.828V44.968Z" fill="black"/>
</svg>
